# xmcd
#
# Track frame offsets: 
#        150
#        14017
#        29305
#        46860
#        59335
#        76015
#        89137
#        105390
#        118132
#        132487
#
# Disc length: 1935 seconds
#
# Revision: 4
# Processed by: cddbd v1.5.1PL0 Copyright (c) Steve Scherf et al.
# Submitted via: ExactAudioCopy v0.95a3
#
DISCID=81078d0a
DTITLE=Aaron Tippin - Read Between The Lines
DYEAR=1992
DGENRE=Country
TTITLE0=The Sound Of Your Goodbye (Sticks And Stones)
TTITLE1=My Blue Angel
TTITLE2=If I Had It To Do Over
TTITLE3=There Ain't Nothin' Wrong With The Radio
TTITLE4=Read Between The Lines
TTITLE5=This Heart
TTITLE6=These Sweet Dreams
TTITLE7=I Was Born with A Broken Heart
TTITLE8=I Wouldn't Have In Any Other Way
TTITLE9=I Miss Misbehavin'
EXTD=
EXTT0=
EXTT1=
EXTT2=
EXTT3=
EXTT4=
EXTT5=
EXTT6=
EXTT7=
EXTT8=
EXTT9=
PLAYORDER=
